<svg width="205" height="116" viewBox="0 0 205 116" fill="none" xmlns="http://www.w3.org/2000/svg">
<path d="M0 24.1253L42 0V11.0637L0.0936752 35L0 24.1253Z" fill="#AF741B"/>
<path d="M27 26.8928L42 18L41.9572 29.8525L27 38V26.8928Z" fill="#AF741B"/>
<path d="M27 43.4009L42 35V46.5675L27 55V43.4009Z" fill="#AF741B"/>
<path d="M84 24.1288L42 0V11.0566L83.9065 35L84 24.1288Z" fill="#E79F33"/>
<path d="M84 42.8526L42.0398 18L42 29.9269L83.9066 54L84 42.8526Z" fill="#E79F33"/>
<path d="M69 51.2436L42 35V46.4037L69 63L69 51.2436Z" fill="#E79F33"/>
<path d="M0 42.371L11.4612 35.8266V46.1628L9.54023 47.1674V84.8183L14.7692 87.8696H15.4397V25.9454L24 21V104L1.43676e-05 89.7527L0 42.371Z" fill="#AF741B"/>
<path d="M84 43.5134L73.0251 37V47.2872L74.8645 48.2871V83.4781L69.8717 86.5136H69.2154V62.6058L60 56.942V105L84 90.6707L84 43.5134Z" fill="#E79F33"/>
<path d="M30 58.5109L38.5046 53V99.405L42 101.562V116L30 108.408V58.5109Z" fill="#AF741B"/>
<path d="M55 58.5109L45.7866 53V99.405L42 101.562V116L55 108.408V58.5109Z" fill="#E79F33"/>
<path d="M95.828 33.472C95.828 34 95.96 34.4693 96.224 34.88C96.5027 35.2907 96.84 35.65 97.236 35.958C97.632 36.266 98.1673 36.64 98.842 37.08C99.5753 37.5493 100.162 37.96 100.602 38.312C101.042 38.664 101.416 39.0967 101.724 39.61C102.032 40.1087 102.186 40.688 102.186 41.348C102.186 42.1107 101.981 42.7927 101.57 43.394C101.159 43.9807 100.587 44.4427 99.854 44.78C99.1353 45.1027 98.3287 45.264 97.434 45.264C96.774 45.264 96.0847 45.176 95.366 45C94.6473 44.8093 94.1633 44.604 93.914 44.384C93.8407 44.3253 93.782 44.274 93.738 44.23C93.7087 44.1713 93.694 44.0833 93.694 43.966L93.628 40.468V40.446C93.628 40.3873 93.6647 40.358 93.738 40.358C93.8113 40.3433 93.8553 40.3653 93.87 40.424C94.31 41.3187 94.6913 42.0447 95.014 42.602C95.3513 43.1593 95.7693 43.6507 96.268 44.076C96.7813 44.5013 97.3607 44.714 98.006 44.714C98.5927 44.714 99.0767 44.56 99.458 44.252C99.8393 43.9293 100.03 43.3867 100.03 42.624C100.03 41.9787 99.8833 41.414 99.59 40.93C99.3113 40.446 98.9667 40.0353 98.556 39.698C98.1453 39.3607 97.5807 38.9573 96.862 38.488C96.158 38.0333 95.608 37.6447 95.212 37.322C94.8307 36.9993 94.5007 36.6107 94.222 36.156C93.9433 35.7013 93.804 35.166 93.804 34.55C93.804 33.7727 94.024 33.12 94.464 32.592C94.9187 32.0493 95.498 31.6533 96.202 31.404C96.906 31.14 97.6467 31.008 98.424 31.008C98.9373 31.008 99.458 31.0593 99.986 31.162C100.514 31.25 100.939 31.36 101.262 31.492C101.394 31.5507 101.482 31.6167 101.526 31.69C101.57 31.7487 101.592 31.8293 101.592 31.932V35.166C101.592 35.21 101.555 35.2467 101.482 35.276C101.409 35.2907 101.365 35.276 101.35 35.232L101.174 34.814C100.807 33.89 100.375 33.1053 99.876 32.46C99.392 31.8147 98.71 31.492 97.83 31.492C97.2433 31.492 96.7593 31.6607 96.378 31.998C96.0113 32.3353 95.828 32.8267 95.828 33.472ZM111.814 45.264C110.45 45.264 109.233 44.9487 108.162 44.318C107.106 43.6727 106.285 42.8073 105.698 41.722C105.126 40.622 104.84 39.4267 104.84 38.136C104.84 36.6253 105.222 35.3347 105.984 34.264C106.747 33.1787 107.722 32.3647 108.91 31.822C110.113 31.2793 111.338 31.008 112.584 31.008C113.978 31.008 115.202 31.338 116.258 31.998C117.314 32.6433 118.121 33.5013 118.678 34.572C119.25 35.6427 119.536 36.7793 119.536 37.982C119.536 39.3167 119.184 40.5413 118.48 41.656C117.776 42.7707 116.83 43.6507 115.642 44.296C114.469 44.9413 113.193 45.264 111.814 45.264ZM112.54 44.714C113.362 44.714 114.095 44.4793 114.74 44.01C115.4 43.526 115.914 42.8293 116.28 41.92C116.647 40.996 116.83 39.896 116.83 38.62C116.83 37.2707 116.625 36.068 116.214 35.012C115.804 33.9413 115.21 33.1053 114.432 32.504C113.655 31.9027 112.746 31.602 111.704 31.602C110.37 31.602 109.343 32.108 108.624 33.12C107.906 34.1173 107.546 35.518 107.546 37.322C107.546 38.7447 107.759 40.0207 108.184 41.15C108.624 42.2647 109.218 43.1373 109.966 43.768C110.729 44.3987 111.587 44.714 112.54 44.714ZM128.218 45.088C127.749 45.088 127.191 45.066 126.546 45.022C126.311 45.0073 126.018 44.9927 125.666 44.978C125.329 44.9633 124.947 44.956 124.522 44.956L122.894 44.978C122.601 44.9927 122.205 45 121.706 45C121.677 45 121.662 44.956 121.662 44.868C121.662 44.78 121.677 44.736 121.706 44.736C122.175 44.736 122.52 44.6993 122.74 44.626C122.96 44.5527 123.107 44.4133 123.18 44.208C123.268 43.988 123.312 43.658 123.312 43.218V33.032C123.312 32.592 123.268 32.2693 123.18 32.064C123.107 31.8587 122.96 31.7193 122.74 31.646C122.535 31.558 122.205 31.514 121.75 31.514C121.706 31.514 121.684 31.47 121.684 31.382C121.684 31.294 121.706 31.25 121.75 31.25L122.916 31.272C123.591 31.3013 124.126 31.316 124.522 31.316C125.123 31.316 125.739 31.294 126.37 31.25C127.133 31.2207 127.646 31.206 127.91 31.206C129.391 31.206 130.704 31.4993 131.848 32.086C133.007 32.6727 133.901 33.472 134.532 34.484C135.163 35.496 135.478 36.6327 135.478 37.894C135.478 39.3167 135.148 40.578 134.488 41.678C133.843 42.7633 132.963 43.6067 131.848 44.208C130.748 44.7947 129.538 45.088 128.218 45.088ZM127.998 44.582C128.937 44.582 129.765 44.3473 130.484 43.878C131.203 43.394 131.76 42.6827 132.156 41.744C132.567 40.8053 132.772 39.6833 132.772 38.378C132.772 37.1313 132.581 36.002 132.2 34.99C131.819 33.9633 131.276 33.1567 130.572 32.57C129.868 31.9833 129.054 31.69 128.13 31.69C127.221 31.69 126.597 31.778 126.26 31.954C125.923 32.13 125.754 32.504 125.754 33.076V42.976C125.754 43.5627 125.908 43.9807 126.216 44.23C126.524 44.4647 127.118 44.582 127.998 44.582ZM153.102 44.736C153.146 44.736 153.168 44.78 153.168 44.868C153.168 44.956 153.146 45 153.102 45C152.588 45 152.178 44.9927 151.87 44.978L150.176 44.956L148.196 44.978C147.932 44.9927 147.572 45 147.118 45C147.074 45 147.052 44.956 147.052 44.868C147.052 44.78 147.074 44.736 147.118 44.736C147.66 44.736 148.056 44.6993 148.306 44.626C148.555 44.5527 148.724 44.4133 148.812 44.208C148.9 44.0027 148.944 43.6727 148.944 43.218V38.158H141.838V43.218C141.838 43.658 141.882 43.988 141.97 44.208C142.058 44.4133 142.226 44.5527 142.476 44.626C142.725 44.6993 143.121 44.736 143.664 44.736C143.693 44.736 143.708 44.78 143.708 44.868C143.708 44.956 143.693 45 143.664 45C143.15 45 142.74 44.9927 142.432 44.978L140.518 44.956L138.868 44.978C138.574 44.9927 138.171 45 137.658 45C137.628 45 137.614 44.956 137.614 44.868C137.614 44.78 137.628 44.736 137.658 44.736C138.171 44.736 138.545 44.6993 138.78 44.626C139.014 44.5527 139.176 44.4133 139.264 44.208C139.352 43.988 139.396 43.658 139.396 43.218V33.032C139.396 32.592 139.352 32.2693 139.264 32.064C139.176 31.8587 139.014 31.7193 138.78 31.646C138.56 31.558 138.2 31.514 137.702 31.514C137.658 31.514 137.636 31.47 137.636 31.382C137.636 31.294 137.658 31.25 137.702 31.25L138.89 31.272C139.564 31.3013 140.107 31.316 140.518 31.316C141.075 31.316 141.72 31.3013 142.454 31.272L143.664 31.25C143.693 31.25 143.708 31.294 143.708 31.382C143.708 31.47 143.693 31.514 143.664 31.514C143.136 31.514 142.747 31.558 142.498 31.646C142.248 31.734 142.072 31.888 141.97 32.108C141.882 32.3133 141.838 32.636 141.838 33.076V37.542H148.944V33.076C148.944 32.636 148.9 32.3133 148.812 32.108C148.724 31.888 148.555 31.734 148.306 31.646C148.056 31.558 147.66 31.514 147.118 31.514C147.074 31.514 147.052 31.47 147.052 31.382C147.052 31.294 147.074 31.25 147.118 31.25L148.196 31.272C148.929 31.3013 149.589 31.316 150.176 31.316C150.572 31.316 151.136 31.3013 151.87 31.272L153.102 31.25C153.146 31.25 153.168 31.294 153.168 31.382C153.168 31.47 153.146 31.514 153.102 31.514C152.603 31.514 152.229 31.558 151.98 31.646C151.745 31.7193 151.584 31.8587 151.496 32.064C151.422 32.2693 151.386 32.592 151.386 33.032V43.218C151.386 43.658 151.422 43.988 151.496 44.208C151.584 44.4133 151.745 44.5527 151.98 44.626C152.214 44.6993 152.588 44.736 153.102 44.736ZM159.233 43.218C159.233 43.6727 159.269 44.0027 159.343 44.208C159.416 44.4133 159.555 44.5527 159.761 44.626C159.981 44.6993 160.325 44.736 160.795 44.736C160.839 44.736 160.861 44.78 160.861 44.868C160.861 44.956 160.839 45 160.795 45C160.311 45 159.929 44.9927 159.651 44.978L157.979 44.956L156.351 44.978C156.057 44.9927 155.661 45 155.163 45C155.133 45 155.119 44.956 155.119 44.868C155.119 44.78 155.133 44.736 155.163 44.736C155.632 44.736 155.977 44.6993 156.197 44.626C156.417 44.5527 156.563 44.4133 156.637 44.208C156.725 43.988 156.769 43.658 156.769 43.218V33.032C156.769 32.592 156.725 32.2693 156.637 32.064C156.563 31.8587 156.417 31.7193 156.197 31.646C155.977 31.558 155.632 31.514 155.163 31.514C155.133 31.514 155.119 31.47 155.119 31.382C155.119 31.294 155.133 31.25 155.163 31.25L156.351 31.272C157.025 31.3013 157.568 31.316 157.979 31.316C158.433 31.316 158.998 31.3013 159.673 31.272L160.795 31.25C160.839 31.25 160.861 31.294 160.861 31.382C160.861 31.47 160.839 31.514 160.795 31.514C160.34 31.514 160.003 31.558 159.783 31.646C159.563 31.734 159.416 31.888 159.343 32.108C159.269 32.3133 159.233 32.636 159.233 33.076V43.218ZM96.752 63.13C96.752 63.5993 96.8033 63.944 96.906 64.164C97.0087 64.3693 97.1993 64.516 97.478 64.604C97.7713 64.692 98.2333 64.736 98.864 64.736C98.908 64.736 98.93 64.78 98.93 64.868C98.93 64.956 98.908 65 98.864 65C98.2627 65 97.7933 64.9927 97.456 64.978L95.542 64.956L93.936 64.978C93.6427 64.9927 93.2467 65 92.748 65C92.704 65 92.682 64.956 92.682 64.868C92.682 64.78 92.704 64.736 92.748 64.736C93.2173 64.736 93.5547 64.6993 93.76 64.626C93.98 64.5527 94.1267 64.4133 94.2 64.208C94.2733 63.988 94.31 63.658 94.31 63.218V53.032C94.31 52.592 94.2733 52.2693 94.2 52.064C94.1267 51.8587 93.98 51.7193 93.76 51.646C93.54 51.558 93.2027 51.514 92.748 51.514C92.704 51.514 92.682 51.47 92.682 51.382C92.682 51.294 92.704 51.25 92.748 51.25L93.914 51.272C94.5887 51.3013 95.124 51.316 95.52 51.316C95.872 51.316 96.29 51.294 96.774 51.25C96.9647 51.2353 97.2067 51.2207 97.5 51.206C97.7933 51.1913 98.1307 51.184 98.512 51.184C100.008 51.184 101.189 51.4993 102.054 52.13C102.919 52.746 103.352 53.7067 103.352 55.012C103.352 55.9213 103.117 56.6913 102.648 57.322C102.179 57.9527 101.57 58.4293 100.822 58.752C100.089 59.0747 99.3333 59.236 98.556 59.236C98.16 59.236 97.8153 59.1993 97.522 59.126C97.4927 59.126 97.478 59.0893 97.478 59.016C97.478 58.972 97.4853 58.928 97.5 58.884C97.5293 58.84 97.5587 58.8253 97.588 58.84C97.808 58.8987 98.0573 58.928 98.336 58.928C99.0107 58.928 99.568 58.6127 100.008 57.982C100.463 57.3513 100.69 56.4567 100.69 55.298C100.69 54.1393 100.441 53.2447 99.942 52.614C99.458 51.9833 98.7467 51.668 97.808 51.668C97.3973 51.668 97.1187 51.7633 96.972 51.954C96.8253 52.1447 96.752 52.5187 96.752 53.076V63.13ZM120.176 64.736C120.205 64.736 120.22 64.78 120.22 64.868C120.22 64.956 120.205 65 120.176 65H116.26C115.937 65 115.336 64.3987 114.456 63.196C113.576 61.9787 112.513 60.2847 111.266 58.114C111.149 58.1287 110.98 58.136 110.76 58.136C110.188 58.136 109.785 58.1287 109.55 58.114V63.218C109.55 63.6727 109.587 64.0027 109.66 64.208C109.733 64.4133 109.873 64.5527 110.078 64.626C110.298 64.6993 110.643 64.736 111.112 64.736C111.141 64.736 111.156 64.78 111.156 64.868C111.156 64.956 111.141 65 111.112 65C110.628 65 110.247 64.9927 109.968 64.978L108.296 64.956L106.69 64.978C106.397 64.9927 106.001 65 105.502 65C105.458 65 105.436 64.956 105.436 64.868C105.436 64.78 105.458 64.736 105.502 64.736C105.971 64.736 106.309 64.6993 106.514 64.626C106.734 64.5527 106.881 64.4133 106.954 64.208C107.042 63.988 107.086 63.658 107.086 63.218V53.032C107.086 52.592 107.049 52.2693 106.976 52.064C106.903 51.8587 106.756 51.7193 106.536 51.646C106.316 51.558 105.979 51.514 105.524 51.514C105.495 51.514 105.48 51.47 105.48 51.382C105.48 51.294 105.495 51.25 105.524 51.25L106.69 51.272C107.365 51.3013 107.9 51.316 108.296 51.316C108.721 51.316 109.191 51.294 109.704 51.25C109.865 51.2353 110.071 51.2207 110.32 51.206C110.584 51.1913 110.892 51.184 111.244 51.184C112.593 51.184 113.635 51.4333 114.368 51.932C115.116 52.416 115.49 53.098 115.49 53.978C115.49 54.6527 115.285 55.298 114.874 55.914C114.463 56.53 113.928 57.0287 113.268 57.41C114.441 59.258 115.424 60.7027 116.216 61.744C117.023 62.7853 117.734 63.548 118.35 64.032C118.981 64.5013 119.589 64.736 120.176 64.736ZM109.55 57.476C109.902 57.5347 110.327 57.564 110.826 57.564C111.354 57.564 111.772 57.4833 112.08 57.322C112.388 57.1607 112.608 56.882 112.74 56.486C112.887 56.09 112.96 55.5327 112.96 54.814C112.96 53.6113 112.784 52.7827 112.432 52.328C112.08 51.8733 111.574 51.646 110.914 51.646C110.415 51.646 110.063 51.756 109.858 51.976C109.653 52.196 109.55 52.5627 109.55 53.076V57.476ZM127.422 65.264C126.058 65.264 124.841 64.9487 123.77 64.318C122.714 63.6727 121.893 62.8073 121.306 61.722C120.734 60.622 120.448 59.4267 120.448 58.136C120.448 56.6253 120.83 55.3347 121.592 54.264C122.355 53.1787 123.33 52.3647 124.518 51.822C125.721 51.2793 126.946 51.008 128.192 51.008C129.586 51.008 130.81 51.338 131.866 51.998C132.922 52.6433 133.729 53.5013 134.286 54.572C134.858 55.6427 135.144 56.7793 135.144 57.982C135.144 59.3167 134.792 60.5413 134.088 61.656C133.384 62.7707 132.438 63.6507 131.25 64.296C130.077 64.9413 128.801 65.264 127.422 65.264ZM128.148 64.714C128.97 64.714 129.703 64.4793 130.348 64.01C131.008 63.526 131.522 62.8293 131.888 61.92C132.255 60.996 132.438 59.896 132.438 58.62C132.438 57.2707 132.233 56.068 131.822 55.012C131.412 53.9413 130.818 53.1053 130.04 52.504C129.263 51.9027 128.354 51.602 127.312 51.602C125.978 51.602 124.951 52.108 124.232 53.12C123.514 54.1173 123.154 55.518 123.154 57.322C123.154 58.7447 123.367 60.0207 123.792 61.15C124.232 62.2647 124.826 63.1373 125.574 63.768C126.337 64.3987 127.195 64.714 128.148 64.714ZM141.406 63.13C141.406 63.5993 141.457 63.944 141.56 64.164C141.663 64.3693 141.853 64.516 142.132 64.604C142.425 64.692 142.887 64.736 143.518 64.736C143.562 64.736 143.584 64.78 143.584 64.868C143.584 64.956 143.562 65 143.518 65C142.917 65 142.447 64.9927 142.11 64.978L140.196 64.956L138.59 64.978C138.297 64.9927 137.901 65 137.402 65C137.358 65 137.336 64.956 137.336 64.868C137.336 64.78 137.358 64.736 137.402 64.736C137.871 64.736 138.209 64.6993 138.414 64.626C138.634 64.5527 138.781 64.4133 138.854 64.208C138.927 63.988 138.964 63.658 138.964 63.218V53.032C138.964 52.592 138.927 52.2693 138.854 52.064C138.781 51.8587 138.634 51.7193 138.414 51.646C138.194 51.558 137.857 51.514 137.402 51.514C137.358 51.514 137.336 51.47 137.336 51.382C137.336 51.294 137.358 51.25 137.402 51.25L138.568 51.272C139.243 51.3013 139.778 51.316 140.174 51.316C140.526 51.316 140.944 51.294 141.428 51.25C141.619 51.2353 141.861 51.2207 142.154 51.206C142.447 51.1913 142.785 51.184 143.166 51.184C144.662 51.184 145.843 51.4993 146.708 52.13C147.573 52.746 148.006 53.7067 148.006 55.012C148.006 55.9213 147.771 56.6913 147.302 57.322C146.833 57.9527 146.224 58.4293 145.476 58.752C144.743 59.0747 143.987 59.236 143.21 59.236C142.814 59.236 142.469 59.1993 142.176 59.126C142.147 59.126 142.132 59.0893 142.132 59.016C142.132 58.972 142.139 58.928 142.154 58.884C142.183 58.84 142.213 58.8253 142.242 58.84C142.462 58.8987 142.711 58.928 142.99 58.928C143.665 58.928 144.222 58.6127 144.662 57.982C145.117 57.3513 145.344 56.4567 145.344 55.298C145.344 54.1393 145.095 53.2447 144.596 52.614C144.112 51.9833 143.401 51.668 142.462 51.668C142.051 51.668 141.773 51.7633 141.626 51.954C141.479 52.1447 141.406 52.5187 141.406 53.076V63.13ZM160.166 61.502C160.166 61.4727 160.195 61.458 160.254 61.458C160.298 61.458 160.335 61.4727 160.364 61.502C160.408 61.5167 160.43 61.5313 160.43 61.546C160.283 62.69 160.21 63.7313 160.21 64.67C160.21 64.7873 160.188 64.8753 160.144 64.934C160.1 64.978 160.012 65 159.88 65H150.156C150.112 65 150.09 64.956 150.09 64.868C150.09 64.78 150.112 64.736 150.156 64.736C150.625 64.736 150.963 64.6993 151.168 64.626C151.388 64.5527 151.535 64.4133 151.608 64.208C151.681 63.988 151.718 63.658 151.718 63.218V53.032C151.718 52.592 151.681 52.2693 151.608 52.064C151.535 51.8587 151.388 51.7193 151.168 51.646C150.948 51.558 150.611 51.514 150.156 51.514C150.112 51.514 150.09 51.47 150.09 51.382C150.09 51.294 150.112 51.25 150.156 51.25H159.484C159.631 51.25 159.704 51.316 159.704 51.448L159.748 54.374C159.748 54.4033 159.704 54.4253 159.616 54.44C159.543 54.4547 159.499 54.44 159.484 54.396C159.249 53.5453 158.853 52.9147 158.296 52.504C157.739 52.0933 157.005 51.888 156.096 51.888H155.436C154.996 51.888 154.673 51.9833 154.468 52.174C154.263 52.3647 154.16 52.658 154.16 53.054V57.542H155.986C156.837 57.542 157.489 57.3953 157.944 57.102C158.399 56.8087 158.626 56.398 158.626 55.87C158.626 55.826 158.663 55.804 158.736 55.804C158.824 55.804 158.868 55.826 158.868 55.87L158.846 57.85L158.868 58.906C158.897 59.4047 158.912 59.8007 158.912 60.094C158.912 60.1233 158.868 60.138 158.78 60.138C158.692 60.138 158.648 60.1233 158.648 60.094C158.648 59.4927 158.413 59.0233 157.944 58.686C157.489 58.334 156.829 58.158 155.964 58.158H154.16V63.13C154.16 63.5553 154.241 63.8707 154.402 64.076C154.563 64.2813 154.82 64.384 155.172 64.384H155.898C157.042 64.384 157.959 64.1493 158.648 63.68C159.337 63.2107 159.843 62.4847 160.166 61.502ZM177.409 64.736C177.438 64.736 177.453 64.78 177.453 64.868C177.453 64.956 177.438 65 177.409 65H173.493C173.17 65 172.569 64.3987 171.689 63.196C170.809 61.9787 169.745 60.2847 168.499 58.114C168.381 58.1287 168.213 58.136 167.993 58.136C167.421 58.136 167.017 58.1287 166.783 58.114V63.218C166.783 63.6727 166.819 64.0027 166.893 64.208C166.966 64.4133 167.105 64.5527 167.311 64.626C167.531 64.6993 167.875 64.736 168.345 64.736C168.374 64.736 168.389 64.78 168.389 64.868C168.389 64.956 168.374 65 168.345 65C167.861 65 167.479 64.9927 167.201 64.978L165.529 64.956L163.923 64.978C163.629 64.9927 163.233 65 162.735 65C162.691 65 162.669 64.956 162.669 64.868C162.669 64.78 162.691 64.736 162.735 64.736C163.204 64.736 163.541 64.6993 163.747 64.626C163.967 64.5527 164.113 64.4133 164.187 64.208C164.275 63.988 164.319 63.658 164.319 63.218V53.032C164.319 52.592 164.282 52.2693 164.209 52.064C164.135 51.8587 163.989 51.7193 163.769 51.646C163.549 51.558 163.211 51.514 162.757 51.514C162.727 51.514 162.713 51.47 162.713 51.382C162.713 51.294 162.727 51.25 162.757 51.25L163.923 51.272C164.597 51.3013 165.133 51.316 165.529 51.316C165.954 51.316 166.423 51.294 166.937 51.25C167.098 51.2353 167.303 51.2207 167.553 51.206C167.817 51.1913 168.125 51.184 168.477 51.184C169.826 51.184 170.867 51.4333 171.601 51.932C172.349 52.416 172.723 53.098 172.723 53.978C172.723 54.6527 172.517 55.298 172.107 55.914C171.696 56.53 171.161 57.0287 170.501 57.41C171.674 59.258 172.657 60.7027 173.449 61.744C174.255 62.7853 174.967 63.548 175.583 64.032C176.213 64.5013 176.822 64.736 177.409 64.736ZM166.783 57.476C167.135 57.5347 167.56 57.564 168.059 57.564C168.587 57.564 169.005 57.4833 169.313 57.322C169.621 57.1607 169.841 56.882 169.973 56.486C170.119 56.09 170.193 55.5327 170.193 54.814C170.193 53.6113 170.017 52.7827 169.665 52.328C169.313 51.8733 168.807 51.646 168.147 51.646C167.648 51.646 167.296 51.756 167.091 51.976C166.885 52.196 166.783 52.5627 166.783 53.076V57.476ZM180.713 51.756C178.968 51.756 177.714 52.8927 176.951 55.166C176.937 55.21 176.893 55.232 176.819 55.232C176.746 55.2173 176.709 55.188 176.709 55.144C176.768 54.5573 176.834 53.802 176.907 52.878C176.981 51.9393 177.017 51.2353 177.017 50.766C177.017 50.6927 177.054 50.656 177.127 50.656C177.215 50.656 177.259 50.6927 177.259 50.766C177.259 51.0887 177.677 51.25 178.513 51.25C179.775 51.294 181.249 51.316 182.935 51.316C183.801 51.316 184.717 51.3013 185.685 51.272L187.181 51.25C187.739 51.25 188.142 51.2133 188.391 51.14C188.655 51.0667 188.824 50.92 188.897 50.7C188.912 50.6413 188.956 50.612 189.029 50.612C189.117 50.612 189.161 50.6413 189.161 50.7C189.117 51.14 189.066 51.844 189.007 52.812C188.963 53.78 188.941 54.5573 188.941 55.144C188.941 55.188 188.905 55.21 188.831 55.21C188.758 55.21 188.714 55.188 188.699 55.144C188.479 54.0147 188.069 53.1713 187.467 52.614C186.866 52.042 186.125 51.756 185.245 51.756C184.82 51.756 184.534 51.8513 184.387 52.042C184.255 52.218 184.189 52.5627 184.189 53.076V63.218C184.189 63.6727 184.233 64.0027 184.321 64.208C184.409 64.4133 184.578 64.5527 184.827 64.626C185.077 64.6993 185.473 64.736 186.015 64.736C186.059 64.736 186.081 64.78 186.081 64.868C186.081 64.956 186.059 65 186.015 65C185.487 65 185.069 64.9927 184.761 64.978L182.935 64.956L181.153 64.978C180.845 64.9927 180.42 65 179.877 65C179.833 65 179.811 64.956 179.811 64.868C179.811 64.78 179.833 64.736 179.877 64.736C180.405 64.736 180.794 64.6993 181.043 64.626C181.307 64.5527 181.483 64.4133 181.571 64.208C181.674 63.988 181.725 63.658 181.725 63.218V53.032C181.725 52.5333 181.659 52.196 181.527 52.02C181.395 51.844 181.124 51.756 180.713 51.756ZM204.156 51.25C204.186 51.25 204.2 51.294 204.2 51.382C204.2 51.47 204.186 51.514 204.156 51.514C203.702 51.514 203.144 51.8 202.484 52.372C201.824 52.9293 201.238 53.6333 200.724 54.484L198.436 58.312V63.218C198.436 63.6727 198.473 64.0027 198.546 64.208C198.62 64.4133 198.759 64.5527 198.964 64.626C199.184 64.6993 199.529 64.736 199.998 64.736C200.042 64.736 200.064 64.78 200.064 64.868C200.064 64.956 200.042 65 199.998 65C199.514 65 199.133 64.9927 198.854 64.978L197.204 64.956L195.576 64.978C195.283 64.9927 194.887 65 194.388 65C194.359 65 194.344 64.956 194.344 64.868C194.344 64.78 194.359 64.736 194.388 64.736C194.858 64.736 195.202 64.6993 195.422 64.626C195.642 64.5527 195.789 64.4133 195.862 64.208C195.95 63.988 195.994 63.658 195.994 63.218V58.774L192.782 53.78C192.24 52.9293 191.785 52.3427 191.418 52.02C191.066 51.6827 190.766 51.514 190.516 51.514C190.472 51.514 190.45 51.47 190.45 51.382C190.45 51.294 190.472 51.25 190.516 51.25L191.198 51.272C191.521 51.3013 191.748 51.316 191.88 51.316C192.394 51.316 193.134 51.3013 194.102 51.272L195.554 51.25C195.584 51.25 195.598 51.294 195.598 51.382C195.598 51.47 195.584 51.514 195.554 51.514C195.305 51.514 195.107 51.5727 194.96 51.69C194.828 51.8073 194.762 51.9613 194.762 52.152C194.762 52.3867 194.865 52.6653 195.07 52.988L198.084 57.74L200.108 54.286C200.504 53.626 200.702 53.0613 200.702 52.592C200.702 52.24 200.592 51.976 200.372 51.8C200.167 51.6093 199.866 51.514 199.47 51.514C199.426 51.514 199.404 51.47 199.404 51.382C199.404 51.294 199.426 51.25 199.47 51.25L200.636 51.272C201.311 51.3013 201.912 51.316 202.44 51.316C202.69 51.316 202.99 51.3013 203.342 51.272L204.156 51.25ZM100.998 85.264C99.3847 85.264 97.9767 84.956 96.774 84.34C95.5713 83.724 94.6547 82.888 94.024 81.832C93.3933 80.7613 93.078 79.5733 93.078 78.268C93.078 76.86 93.4373 75.606 94.156 74.506C94.8893 73.3913 95.8867 72.5333 97.148 71.932C98.424 71.316 99.8467 71.008 101.416 71.008C102.105 71.008 102.802 71.0667 103.506 71.184C104.21 71.2867 104.775 71.426 105.2 71.602C105.332 71.646 105.413 71.7047 105.442 71.778C105.486 71.8367 105.515 71.9467 105.53 72.108L105.816 75.166C105.816 75.21 105.779 75.2393 105.706 75.254C105.633 75.2687 105.581 75.2467 105.552 75.188C105.039 74.0587 104.327 73.1787 103.418 72.548C102.523 71.9173 101.497 71.602 100.338 71.602C98.842 71.602 97.698 72.1227 96.906 73.164C96.1287 74.2053 95.74 75.628 95.74 77.432C95.74 78.884 95.9893 80.182 96.488 81.326C96.9867 82.4553 97.676 83.3353 98.556 83.966C99.4507 84.582 100.448 84.89 101.548 84.89C102.149 84.89 102.611 84.824 102.934 84.692C103.257 84.56 103.491 84.3033 103.638 83.922C103.785 83.5407 103.858 82.976 103.858 82.228C103.858 81.4653 103.814 80.9373 103.726 80.644C103.638 80.336 103.447 80.1307 103.154 80.028C102.875 79.9253 102.384 79.874 101.68 79.874C101.592 79.874 101.548 79.8153 101.548 79.698C101.548 79.654 101.555 79.6173 101.57 79.588C101.599 79.544 101.629 79.522 101.658 79.522C102.905 79.5953 103.909 79.632 104.672 79.632C105.42 79.632 106.197 79.61 107.004 79.566C107.033 79.566 107.055 79.588 107.07 79.632C107.099 79.6613 107.114 79.6907 107.114 79.72C107.114 79.8227 107.077 79.874 107.004 79.874C106.74 79.8593 106.557 79.9107 106.454 80.028C106.351 80.1307 106.285 80.3507 106.256 80.688C106.227 81.0107 106.212 81.5973 106.212 82.448C106.212 83.108 106.234 83.5773 106.278 83.856C106.337 84.1347 106.366 84.3107 106.366 84.384C106.366 84.472 106.344 84.5307 106.3 84.56C106.271 84.5893 106.205 84.6187 106.102 84.648C104.21 85.0587 102.509 85.264 100.998 85.264ZM123.829 84.736C123.858 84.736 123.873 84.78 123.873 84.868C123.873 84.956 123.858 85 123.829 85H119.913C119.59 85 118.989 84.3987 118.109 83.196C117.229 81.9787 116.165 80.2847 114.919 78.114C114.801 78.1287 114.633 78.136 114.413 78.136C113.841 78.136 113.437 78.1287 113.203 78.114V83.218C113.203 83.6727 113.239 84.0027 113.313 84.208C113.386 84.4133 113.525 84.5527 113.731 84.626C113.951 84.6993 114.295 84.736 114.765 84.736C114.794 84.736 114.809 84.78 114.809 84.868C114.809 84.956 114.794 85 114.765 85C114.281 85 113.899 84.9927 113.621 84.978L111.949 84.956L110.343 84.978C110.049 84.9927 109.653 85 109.155 85C109.111 85 109.089 84.956 109.089 84.868C109.089 84.78 109.111 84.736 109.155 84.736C109.624 84.736 109.961 84.6993 110.167 84.626C110.387 84.5527 110.533 84.4133 110.607 84.208C110.695 83.988 110.739 83.658 110.739 83.218V73.032C110.739 72.592 110.702 72.2693 110.629 72.064C110.555 71.8587 110.409 71.7193 110.189 71.646C109.969 71.558 109.631 71.514 109.177 71.514C109.147 71.514 109.133 71.47 109.133 71.382C109.133 71.294 109.147 71.25 109.177 71.25L110.343 71.272C111.017 71.3013 111.553 71.316 111.949 71.316C112.374 71.316 112.843 71.294 113.357 71.25C113.518 71.2353 113.723 71.2207 113.973 71.206C114.237 71.1913 114.545 71.184 114.897 71.184C116.246 71.184 117.287 71.4333 118.021 71.932C118.769 72.416 119.143 73.098 119.143 73.978C119.143 74.6527 118.937 75.298 118.527 75.914C118.116 76.53 117.581 77.0287 116.921 77.41C118.094 79.258 119.077 80.7027 119.869 81.744C120.675 82.7853 121.387 83.548 122.003 84.032C122.633 84.5013 123.242 84.736 123.829 84.736ZM113.203 77.476C113.555 77.5347 113.98 77.564 114.479 77.564C115.007 77.564 115.425 77.4833 115.733 77.322C116.041 77.1607 116.261 76.882 116.393 76.486C116.539 76.09 116.613 75.5327 116.613 74.814C116.613 73.6113 116.437 72.7827 116.085 72.328C115.733 71.8733 115.227 71.646 114.567 71.646C114.068 71.646 113.716 71.756 113.511 71.976C113.305 72.196 113.203 72.5627 113.203 73.076V77.476ZM131.075 85.264C129.711 85.264 128.493 84.9487 127.423 84.318C126.367 83.6727 125.545 82.8073 124.959 81.722C124.387 80.622 124.101 79.4267 124.101 78.136C124.101 76.6253 124.482 75.3347 125.245 74.264C126.007 73.1787 126.983 72.3647 128.171 71.822C129.373 71.2793 130.598 71.008 131.845 71.008C133.238 71.008 134.463 71.338 135.519 71.998C136.575 72.6433 137.381 73.5013 137.939 74.572C138.511 75.6427 138.797 76.7793 138.797 77.982C138.797 79.3167 138.445 80.5413 137.741 81.656C137.037 82.7707 136.091 83.6507 134.903 84.296C133.729 84.9413 132.453 85.264 131.075 85.264ZM131.801 84.714C132.622 84.714 133.355 84.4793 134.001 84.01C134.661 83.526 135.174 82.8293 135.541 81.92C135.907 80.996 136.091 79.896 136.091 78.62C136.091 77.2707 135.885 76.068 135.475 75.012C135.064 73.9413 134.47 73.1053 133.693 72.504C132.915 71.9027 132.006 71.602 130.965 71.602C129.63 71.602 128.603 72.108 127.885 73.12C127.166 74.1173 126.807 75.518 126.807 77.322C126.807 78.7447 127.019 80.0207 127.445 81.15C127.885 82.2647 128.479 83.1373 129.227 83.768C129.989 84.3987 130.847 84.714 131.801 84.714ZM156.278 84.736C156.322 84.736 156.344 84.78 156.344 84.868C156.344 84.956 156.322 85 156.278 85L154.32 84.978L152.758 85C152.582 85 152.465 84.978 152.406 84.934C152.362 84.89 152.34 84.7727 152.34 84.582V83.086C151.563 83.834 150.786 84.384 150.008 84.736C149.231 85.088 148.38 85.264 147.456 85.264C146.503 85.264 145.63 85.088 144.838 84.736C144.061 84.3693 143.445 83.856 142.99 83.196C142.536 82.536 142.308 81.7733 142.308 80.908V73.032C142.308 72.592 142.272 72.2693 142.198 72.064C142.125 71.8587 141.978 71.7193 141.758 71.646C141.538 71.558 141.201 71.514 140.746 71.514C140.702 71.514 140.68 71.47 140.68 71.382C140.68 71.294 140.702 71.25 140.746 71.25L141.912 71.272C142.587 71.3013 143.122 71.316 143.518 71.316C143.958 71.316 144.516 71.3013 145.19 71.272L146.334 71.25C146.364 71.25 146.378 71.294 146.378 71.382C146.378 71.47 146.364 71.514 146.334 71.514C145.88 71.514 145.542 71.558 145.322 71.646C145.102 71.734 144.948 71.888 144.86 72.108C144.787 72.3133 144.75 72.636 144.75 73.076V80.138C144.75 81.502 145.073 82.5507 145.718 83.284C146.378 84.0173 147.258 84.384 148.358 84.384C149.062 84.384 149.73 84.23 150.36 83.922C150.991 83.614 151.651 83.13 152.34 82.47V73.076C152.34 72.636 152.304 72.3133 152.23 72.108C152.157 71.888 152.01 71.734 151.79 71.646C151.585 71.558 151.248 71.514 150.778 71.514C150.749 71.514 150.734 71.47 150.734 71.382C150.734 71.294 150.749 71.25 150.778 71.25L151.944 71.272C152.59 71.3013 153.103 71.316 153.484 71.316C153.91 71.316 154.445 71.3013 155.09 71.272L156.278 71.25C156.322 71.25 156.344 71.294 156.344 71.382C156.344 71.47 156.322 71.514 156.278 71.514C155.824 71.514 155.486 71.558 155.266 71.646C155.046 71.7193 154.892 71.8587 154.804 72.064C154.731 72.2693 154.694 72.592 154.694 73.032V83.218C154.694 83.658 154.731 83.988 154.804 84.208C154.892 84.4133 155.039 84.5527 155.244 84.626C155.464 84.6993 155.809 84.736 156.278 84.736ZM162.17 83.13C162.17 83.5993 162.222 83.944 162.324 84.164C162.427 84.3693 162.618 84.516 162.896 84.604C163.19 84.692 163.652 84.736 164.282 84.736C164.326 84.736 164.348 84.78 164.348 84.868C164.348 84.956 164.326 85 164.282 85C163.681 85 163.212 84.9927 162.874 84.978L160.96 84.956L159.354 84.978C159.061 84.9927 158.665 85 158.166 85C158.122 85 158.1 84.956 158.1 84.868C158.1 84.78 158.122 84.736 158.166 84.736C158.636 84.736 158.973 84.6993 159.178 84.626C159.398 84.5527 159.545 84.4133 159.618 84.208C159.692 83.988 159.728 83.658 159.728 83.218V73.032C159.728 72.592 159.692 72.2693 159.618 72.064C159.545 71.8587 159.398 71.7193 159.178 71.646C158.958 71.558 158.621 71.514 158.166 71.514C158.122 71.514 158.1 71.47 158.1 71.382C158.1 71.294 158.122 71.25 158.166 71.25L159.332 71.272C160.007 71.3013 160.542 71.316 160.938 71.316C161.29 71.316 161.708 71.294 162.192 71.25C162.383 71.2353 162.625 71.2207 162.918 71.206C163.212 71.1913 163.549 71.184 163.93 71.184C165.426 71.184 166.607 71.4993 167.472 72.13C168.338 72.746 168.77 73.7067 168.77 75.012C168.77 75.9213 168.536 76.6913 168.066 77.322C167.597 77.9527 166.988 78.4293 166.24 78.752C165.507 79.0747 164.752 79.236 163.974 79.236C163.578 79.236 163.234 79.1993 162.94 79.126C162.911 79.126 162.896 79.0893 162.896 79.016C162.896 78.972 162.904 78.928 162.918 78.884C162.948 78.84 162.977 78.8253 163.006 78.84C163.226 78.8987 163.476 78.928 163.754 78.928C164.429 78.928 164.986 78.6127 165.426 77.982C165.881 77.3513 166.108 76.4567 166.108 75.298C166.108 74.1393 165.859 73.2447 165.36 72.614C164.876 71.9833 164.165 71.668 163.226 71.668C162.816 71.668 162.537 71.7633 162.39 71.954C162.244 72.1447 162.17 72.5187 162.17 73.076V83.13Z" fill="#E79F33"/>
</svg>
